<svg width="20" height="20" fill="none" xmlns="http://www.w3.org/2000/svg"><path d="M14.586 0H5.414A5.42 5.42 0 000 5.414v9.172A5.42 5.42 0 005.414 20h9.172A5.42 5.42 0 0020 14.586V5.414A5.42 5.42 0 0014.586 0zm4.242 14.586a4.246 4.246 0 01-4.242 4.242H5.414a4.246 4.246 0 01-4.242-4.242V5.414a4.246 4.246 0 014.242-4.242h9.172a4.246 4.246 0 014.242 4.242v9.172z" fill="#000"/><path d="M11.868 5.659h1.095V3.75a14.144 14.144 0 00-1.595-.084c-1.58 0-2.662.993-2.662 2.819v1.68H6.964V10.3h1.742v5.367h2.137V10.3h1.672l.266-2.132h-1.938v-1.47c0-.616.166-1.038 1.025-1.038z" fill="#000"/></svg>