<svg width="20" height="20" fill="none" xmlns="http://www.w3.org/2000/svg"><path d="M13.465 15.628a.515.515 0 01-.288-.088l-3.27-2.218-1.752 1.262a.515.515 0 01-.799-.287l-.88-3.336L3.331 9.76a.515.515 0 01-.007-.96l11.96-4.758a.514.514 0 01.706.577L13.97 15.21a.515.515 0 01-.505.418zm-3.27-3.355l2.911 1.975 1.571-8.242-5.673 5.46 1.177.798.014.01zm-2.424-.439l.39 1.477.84-.604-1.1-.746a.51.51 0 01-.13-.127zM4.93 9.268l2.16.826c.154.06.27.19.313.35l.274 1.037a.515.515 0 01.155-.317l5.406-5.202L4.93 9.268z" fill="#000"/><path d="M14.586 0H5.414A5.42 5.42 0 000 5.414v9.172A5.42 5.42 0 005.414 20h9.172A5.42 5.42 0 0020 14.586V5.414A5.42 5.42 0 0014.586 0zm4.242 14.586a4.246 4.246 0 01-4.242 4.242H5.414a4.246 4.246 0 01-4.242-4.242V5.414a4.246 4.246 0 014.242-4.242h9.172a4.246 4.246 0 014.242 4.242v9.172z" fill="#000"/></svg>