<svg width="20" height="20" fill="none" xmlns="http://www.w3.org/2000/svg"><path d="M14.586 0H5.414A5.42 5.42 0 000 5.414v9.172A5.42 5.42 0 005.414 20h9.172A5.42 5.42 0 0020 14.586V5.414A5.42 5.42 0 0014.586 0zm4.242 14.586a4.246 4.246 0 01-4.242 4.242H5.414a4.246 4.246 0 01-4.242-4.242V5.414a4.246 4.246 0 014.242-4.242h9.172a4.246 4.246 0 014.242 4.242v9.172z" fill="#000"/><path fill-rule="evenodd" clip-rule="evenodd" d="M14.942 5.368a5.936 5.936 0 00-4.226-1.753A5.983 5.983 0 004.74 9.59c0 1.053.274 2.08.797 2.987l-.848 3.096 3.168-.831a5.968 5.968 0 002.855.727h.003a5.983 5.983 0 005.974-5.975 5.935 5.935 0 00-1.748-4.226zm-4.226 9.192h-.002a4.96 4.96 0 01-2.528-.692l-.181-.108-1.88.493.502-1.832-.118-.188a4.954 4.954 0 01-.76-2.643 4.973 4.973 0 014.968-4.966c1.327 0 2.574.518 3.511 1.457a4.937 4.937 0 011.454 3.513 4.973 4.973 0 01-4.966 4.966zm2.724-3.72a24.75 24.75 0 00-1.02-.485c-.137-.05-.237-.075-.336.075-.1.15-.386.486-.473.585-.087.1-.174.112-.324.038-.149-.075-.63-.233-1.2-.741a4.505 4.505 0 01-.83-1.035c-.088-.15-.002-.222.065-.304.161-.2.323-.411.373-.51.05-.1.025-.188-.013-.262-.037-.075-.335-.81-.46-1.109-.121-.291-.244-.252-.336-.256A5.969 5.969 0 008.6 6.83a.55.55 0 00-.398.187c-.137.15-.522.51-.522 1.246 0 .735.534 1.445.61 1.544.074.1 1.052 1.608 2.55 2.254.356.154.634.246.85.315.358.114.684.098.94.06.288-.044.884-.362 1.009-.71.124-.35.124-.649.087-.71-.038-.063-.137-.1-.287-.175z" fill="#000"/></svg>