<svg width="29" height="29" fill="none" xmlns="http://www.w3.org/2000/svg"><path d="M28.513 12.964l-2.45-2.232V3.33a.853.853 0 00-.853-.853h-5.897a.853.853 0 00-.853.853v.474l-2.958-2.696a1.48 1.48 0 00-2.004 0L.489 12.964A1.478 1.478 0 00.101 14.6c.224.578.768.95 1.387.95h2.078v11.88c0 .47.382.852.853.852h7.132a.853.853 0 00.852-.853v-7.212h4.192v7.212c0 .471.382.853.853.853h7.131a.853.853 0 00.853-.853V15.551h2.078c.62 0 1.164-.373 1.387-.95a1.478 1.478 0 00-.385-1.637zm-3.933.88a.853.853 0 00-.853.854v11.878h-5.425v-7.212a.853.853 0 00-.853-.853H11.55a.853.853 0 00-.852.853v7.212H5.273V14.698a.853.853 0 00-.853-.853H2.053L14.5 2.503l4.239 3.862a.853.853 0 001.427-.63V4.183h4.192v6.925c0 .24.1.47.278.63l2.311 2.107H24.58z" fill="#fff"/></svg>