<svg width="15" height="13" fill="none" xmlns="http://www.w3.org/2000/svg"><g clip-path="url(#clip0)" fill="#BDBDBD"><path d="M7.865 3.927c-1.086 0-1.97.783-1.97 1.745 0 .963.884 1.745 1.97 1.745 1.085 0 1.968-.782 1.968-1.745 0-.962-.883-1.745-1.968-1.745zm0 2.715c-.604 0-1.094-.435-1.094-.97 0-.534.49-.969 1.094-.969.603 0 1.093.435 1.093.97 0 .534-.49.969-1.093.969z"/><path d="M7.864 6.629c-1.616 0-2.931 1.165-2.931 2.598v.582c0 .214.196.388.438.388.241 0 .437-.174.437-.388v-.582c0-1.005.923-1.822 2.056-1.822 1.134 0 2.057.817 2.057 1.822v.582c0 .214.196.388.437.388.242 0 .438-.174.438-.388v-.582c0-1.433-1.315-2.598-2.932-2.598zm3.982-3.878c-1.086 0-1.969.783-1.969 1.745 0 .962.883 1.745 1.969 1.745s1.969-.783 1.969-1.745c0-.962-.883-1.745-1.97-1.745zm0 2.715c-.603 0-1.094-.435-1.094-.97 0-.534.49-.97 1.094-.97.603 0 1.094.436 1.094.97 0 .535-.491.97-1.094.97z"/><path d="M11.846 5.453c-1.34 0-2.51.805-2.845 1.958-.06.208.081.42.315.472.234.054.473-.071.533-.279.235-.81 1.056-1.376 1.997-1.376 1.134 0 2.056.818 2.056 1.823v.582c0 .214.196.387.438.387s.437-.173.437-.387V8.05c0-1.433-1.315-2.598-2.931-2.598zM3.883 2.751c-1.086 0-1.969.783-1.969 1.745 0 .962.884 1.745 1.97 1.745 1.085 0 1.968-.783 1.968-1.745 0-.962-.883-1.745-1.969-1.745zm0 2.715c-.603 0-1.094-.435-1.094-.97 0-.534.49-.97 1.094-.97.603 0 1.094.436 1.094.97 0 .535-.49.97-1.094.97z"/><path d="M6.713 7.399c-.332-1.146-1.496-1.946-2.83-1.946C2.267 5.453.952 6.618.952 8.05v.582c0 .214.195.387.437.387s.438-.173.438-.387V8.05c0-1.005.922-1.823 2.056-1.823.935 0 1.75.56 1.983 1.363.06.208.297.332.532.28.234-.054.375-.265.315-.472z"/></g><defs><clipPath id="clip0"><rect x=".952" y=".347" width="13.826" height="12.254" rx="4.628" fill="#fff"/></clipPath></defs></svg>