<svg width="31" height="31" fill="none" xmlns="http://www.w3.org/2000/svg"><path d="M30.161 23.552c-.491-1.55-2.714-3.21-6.796-5.076a4.29 4.29 0 00-5.2 1.107 28.378 28.378 0 01-4.117-3.363 28.361 28.361 0 01-3.362-4.118 4.291 4.291 0 001.106-5.2C9.926 2.823 8.266.599 6.716.108a2.007 2.007 0 00-1.66.168C5.004.305-.185 3.399.006 5.623c.45 5.287 4.966 11.522 9.041 15.597 4.075 4.074 10.311 8.59 15.597 9.043.04.004.08.005.12.005 2.215 0 5.199-5.005 5.229-5.056a2.009 2.009 0 00.167-1.66zm-1.29 1.004c-1.066 1.828-3.288 4.475-4.115 4.411-4.937-.423-10.876-4.755-14.788-8.667-3.912-3.913-8.244-9.851-8.667-14.787-.073-.851 2.584-3.05 4.41-4.116a.672.672 0 01.345-.095.94.94 0 01.267.045c.655.207 2.082 1.276 4.286 6.097a3.104 3.104 0 01-1.142 3.953.65.65 0 00-.211.89 28.755 28.755 0 003.873 4.853 28.757 28.757 0 004.853 3.872.654.654 0 00.888-.208 3.109 3.109 0 013.954-1.145c4.821 2.204 5.89 3.632 6.097 4.286a.711.711 0 01-.05.611z" fill="#fff"/></svg>