<svg width="25" height="34" fill="none" xmlns="http://www.w3.org/2000/svg"><path d="M12.37 17.506a5.094 5.094 0 01-5.1-5.1c0-2.821 2.279-5.1 5.1-5.1 2.822 0 5.1 2.279 5.1 5.1 0 2.821-2.278 5.1-5.1 5.1zm0-8.862c-2.061 0-3.725 1.7-3.725 3.726 0 2.062 1.7 3.726 3.725 3.726 2.062 0 3.762-1.7 3.762-3.726 0-2.025-1.7-3.726-3.762-3.726z" fill="#fff"/><path d="M12.37 34c-.18 0-.325-.072-.47-.18-.109-.11-3.002-2.786-5.932-6.8C1.99 21.63 0 16.71 0 12.37 0 5.534 5.534 0 12.37 0c6.836 0 12.37 5.534 12.37 12.37 0 4.34-1.989 9.224-5.968 14.65-2.93 3.978-5.823 6.69-5.932 6.8-.144.108-.289.18-.47.18zm0-32.626c-6.076 0-11.032 4.956-11.032 11.032 0 8.5 8.862 17.868 11.032 20.002.94-.94 3.147-3.219 5.317-6.148 2.604-3.545 5.715-8.79 5.715-13.817 0-6.15-4.955-11.069-11.032-11.069z" fill="#fff"/></svg>