<svg width="13" height="13" fill="none" xmlns="http://www.w3.org/2000/svg"><g clip-path="url(#clip0)" fill="#BDBDBD"><path d="M6.264 2.671a3.781 3.781 0 00-3.772 3.782 3.781 3.781 0 003.772 3.781 3.781 3.781 0 003.772-3.781A3.781 3.781 0 006.264 2.67zm.358 4.14H4.187v-.717h1.719V3.3h.716v3.51z"/><path d="M10.585 2.12A6.064 6.064 0 006.264.326 6.064 6.064 0 001.942 2.12a6.095 6.095 0 00-1.79 4.333c0 1.636.636 3.175 1.79 4.332a6.064 6.064 0 004.322 1.795 6.064 6.064 0 004.321-1.795 6.094 6.094 0 001.79-4.332 6.095 6.095 0 00-1.79-4.333zm-4.321 8.832a4.499 4.499 0 01-4.488-4.5c0-2.48 2.013-4.499 4.488-4.499a4.499 4.499 0 014.488 4.5c0 2.48-2.013 4.5-4.488 4.5z"/></g><defs><clipPath id="clip0"><rect x=".152" y=".326" width="12.223" height="12.254" rx="4.628" fill="#fff"/></clipPath></defs></svg>